<?xml version="1.0" standalone="no"?>
<!DOCTYPE svg PUBLIC "-//W3C//DTD SVG 20010904//EN"
 "http://www.w3.org/TR/2001/REC-SVG-20010904/DTD/svg10.dtd">
<svg version="1.0" xmlns="http://www.w3.org/2000/svg"
 width="1600.000000pt" height="1108.000000pt" viewBox="0 0 1600.000000 1108.000000"
 preserveAspectRatio="xMidYMid meet">
<metadata>
Created by potrace 1.12, written by Peter Selinger 2001-2015
</metadata>
<g transform="translate(0.000000,1108.000000) scale(0.100000,-0.100000)"
fill="#000000" stroke="none">
<path d="M11780 9086 c-85 -18 -129 -56 -177 -151 -40 -79 -54 -162 -43 -256
11 -83 66 -270 101 -340 17 -35 17 -36 -4 -74 -29 -51 -75 -77 -215 -121 -121
-39 -199 -83 -219 -125 -7 -14 -28 -81 -48 -148 -30 -104 -36 -142 -41 -264
-3 -86 -15 -191 -30 -267 -13 -69 -36 -206 -50 -305 -14 -99 -28 -194 -31
-211 -5 -31 -3 -32 49 -49 71 -24 159 -112 181 -182 21 -63 34 -284 48 -783 7
-223 13 -406 14 -408 1 -2 19 7 39 19 31 18 48 21 114 18 154 -8 178 -59 184
-391 2 -140 6 -174 16 -166 6 6 12 14 12 18 0 4 32 74 72 156 l72 149 8 -40
c4 -22 19 -177 34 -345 25 -289 26 -316 15 -527 -11 -219 -35 -388 -67 -488
-11 -32 -18 -101 -21 -193 l-6 -143 -34 33 c-31 30 -128 178 -167 256 -10 19
-24 99 -35 195 -17 148 -54 421 -68 507 l-6 35 -10 -30 c-5 -16 -24 -52 -41
-78 l-30 -49 -12 34 c-18 49 -16 67 10 99 28 33 28 35 -31 194 l-30 80 44 -4
43 -3 0 133 c0 74 -7 184 -15 244 -8 61 -15 111 -15 113 0 1 -19 2 -41 2 l-42
0 6 -77 c5 -81 -9 -268 -23 -292 -5 -9 -24 28 -54 106 -46 119 -66 149 -128
188 -16 9 -28 21 -28 24 0 4 20 43 45 87 70 122 70 116 35 431 -30 268 -111
778 -132 832 -24 59 -33 73 -67 94 -51 31 -122 98 -132 124 -5 13 -13 62 -19
110 -6 49 -33 162 -60 253 -27 91 -62 212 -79 270 -39 137 -50 161 -111 248
-71 102 -114 122 -261 122 -98 0 -108 -2 -150 -28 -82 -53 -155 -136 -183
-210 -73 -193 -125 -331 -137 -367 -21 -62 -19 -244 4 -278 l17 -27 -38 0
c-68 0 -253 65 -331 117 -80 53 -74 44 -196 330 -104 243 -124 303 -141 422
-8 57 -19 110 -25 117 -5 6 -92 45 -192 84 -218 87 -273 114 -286 139 -15 27
-121 155 -121 145 0 -4 10 -18 22 -31 l22 -23 -23 -98 c-13 -53 -34 -122 -48
-152 l-25 -55 -65 70 c-112 121 -113 100 11 223 105 104 107 107 101 143 -7
42 19 104 64 152 23 25 26 37 30 118 1 49 0 97 -4 107 -4 9 -8 58 -9 107 -2
105 -20 154 -85 227 -58 65 -113 83 -256 83 -127 -1 -160 -12 -228 -74 -51
-47 -98 -142 -105 -212 -2 -25 1 -69 7 -98 8 -38 8 -56 -1 -70 -9 -14 -8 -36
2 -94 10 -63 19 -83 51 -122 32 -39 39 -55 39 -90 0 -48 -4 -54 -90 -120 -77
-59 -209 -114 -398 -166 -192 -52 -212 -66 -211 -147 1 -94 -43 -275 -138
-567 -28 -87 -57 -145 -137 -277 -113 -188 -95 -177 -201 -126 -81 38 -108 79
-99 149 4 28 16 65 28 82 67 100 95 189 82 264 -4 21 -9 94 -12 163 -2 69 -7
140 -10 158 -6 37 -71 115 -116 138 -44 23 -166 46 -249 47 -65 1 -85 -4 -144
-32 -139 -64 -175 -137 -175 -350 0 -68 -5 -131 -11 -142 -6 -13 -8 -45 -4
-85 6 -51 14 -73 41 -108 62 -81 53 -186 -22 -245 -25 -19 -39 -21 -203 -21
-173 0 -177 -1 -226 -28 -84 -46 -140 -144 -227 -402 -33 -96 -81 -227 -108
-290 -88 -210 -170 -456 -170 -510 0 -67 49 -207 114 -329 l54 -100 -54 -68
c-54 -67 -54 -68 -54 -139 l0 -71 -112 -11 c-61 -7 -113 -10 -115 -8 -2 2 4
52 13 112 13 80 14 109 6 112 -7 2 -9 9 -6 15 5 8 2 8 -7 0 -7 -7 -23 -13 -35
-13 -24 0 -29 -20 -40 -154 l-7 -73 -93 -12 c-51 -6 -105 -11 -121 -11 l-28 0
7 137 c7 155 25 227 65 268 71 71 188 73 260 5 17 -16 34 -26 37 -22 3 5 12
197 21 428 22 583 29 684 59 770 41 120 65 153 136 189 19 10 36 18 37 19 2 2
-20 55 -47 119 -27 65 -66 173 -86 240 -20 67 -69 226 -109 352 -40 127 -80
256 -89 287 -15 51 -21 60 -56 78 -87 44 -130 202 -130 475 0 160 -17 314 -47
424 -12 43 -26 65 -70 107 -84 81 -118 94 -249 94 -139 0 -200 -17 -249 -68
-50 -53 -102 -158 -120 -241 -8 -40 -22 -86 -31 -103 -27 -51 -52 -138 -69
-236 -19 -111 -24 -126 -69 -194 -19 -29 -37 -68 -41 -85 -8 -40 -26 -53 -129
-94 -121 -49 -196 -117 -196 -179 0 -12 -25 -127 -55 -256 -50 -215 -107 -545
-136 -791 -19 -158 -21 -155 247 -327 100 -64 188 -123 195 -132 14 -17 15
-297 3 -496 -7 -110 -15 -100 89 -113 l47 -6 0 -53 c0 -37 11 -78 39 -146 21
-52 64 -194 95 -315 31 -121 69 -260 83 -310 30 -103 30 -93 1 -400 -25 -264
-28 -561 -6 -665 11 -53 17 -66 34 -68 28 -4 34 -52 34 -303 0 -191 -1 -198
-25 -241 -40 -72 -92 -235 -109 -346 -16 -100 -15 -105 3 -130 44 -62 160
-152 195 -152 53 0 116 131 122 254 2 43 6 81 8 84 10 9 26 -49 26 -91 0 -31
7 -48 27 -69 26 -27 29 -28 135 -28 l108 0 -12 -25 c-13 -28 2 -73 34 -102 17
-15 38 -18 142 -18 147 1 164 8 246 108 30 37 65 74 77 82 12 9 63 19 115 24
104 10 124 16 132 38 14 34 18 239 6 283 -7 25 -14 64 -17 88 -5 41 -4 42 25
42 29 0 32 3 51 68 11 37 27 101 35 142 9 41 27 129 41 194 24 117 98 331 148
431 24 48 72 200 105 331 l15 61 246 32 c319 42 525 78 580 102 105 46 351
277 379 357 24 66 42 195 42 293 l0 96 104 72 c102 71 104 73 111 119 4 26 29
136 56 245 30 124 51 233 55 290 7 105 -18 420 -46 585 l-18 107 47 50 c25 28
51 60 57 70 10 17 12 12 18 -35 5 -46 15 -287 30 -700 3 -95 -40 -370 -74
-474 -20 -61 -16 -86 16 -86 11 0 14 -31 14 -159 0 -88 7 -211 15 -273 8 -62
19 -171 25 -243 6 -71 15 -168 20 -214 15 -135 22 -435 24 -1081 l1 -605 63
-20 c75 -23 78 -37 26 -110 -48 -66 -83 -142 -77 -165 3 -11 27 -33 54 -51 47
-29 55 -31 173 -36 l124 -6 23 29 c13 15 33 36 44 46 98 87 95 83 94 134 0 27
-4 58 -8 69 -6 15 -1 28 17 50 l24 29 -5 251 c-4 199 -10 287 -31 430 -26 177
-27 184 -16 431 11 274 16 332 60 759 45 431 80 649 109 678 4 4 11 -117 15
-270 4 -153 11 -377 17 -498 12 -273 12 -738 0 -865 -5 -52 -25 -171 -45 -265
-50 -238 -54 -294 -38 -486 15 -182 15 -185 6 -250 -8 -64 13 -113 56 -125 29
-8 35 -16 44 -54 l11 -45 70 -18 c51 -13 99 -17 174 -14 101 3 104 3 127 32
35 44 30 77 -26 180 -27 51 -50 95 -50 98 0 3 20 9 44 12 24 4 58 15 75 26
l31 19 0 112 c0 62 7 201 15 308 8 107 24 355 35 550 33 566 63 836 105 936
10 25 11 51 3 115 -6 58 -6 124 2 213 16 175 39 238 103 276 18 11 42 20 55
20 29 0 29 19 -3 224 -13 89 -36 249 -50 356 -14 107 -34 249 -45 315 -40 246
-51 488 -25 514 7 6 37 -25 87 -88 83 -105 201 -200 270 -219 l37 -10 17 51
c28 86 54 126 101 159 67 46 152 69 281 75 l112 6 0 -25 c0 -38 -26 -54 -161
-103 -162 -59 -157 -52 -180 -245 -14 -119 -7 -703 11 -1000 11 -172 11 -175
38 -201 l28 -25 -43 -139 c-50 -159 -71 -268 -80 -410 -4 -79 -3 -103 8 -112
14 -11 192 -54 294 -70 l50 -8 61 -115 c34 -63 96 -180 139 -260 l77 -145 -20
-40 c-11 -22 -75 -110 -143 -195 -68 -86 -164 -209 -212 -273 -107 -143 -118
-151 -191 -142 -71 9 -128 -17 -191 -87 -39 -44 -45 -56 -45 -94 0 -25 7 -55
16 -69 18 -28 18 -27 -82 -197 -60 -100 -64 -111 -64 -168 0 -166 165 -289
299 -221 20 11 43 26 49 34 7 8 19 71 28 141 l15 127 85 151 c93 164 172 262
284 351 36 28 70 55 75 59 6 5 69 52 140 105 344 255 531 434 635 608 51 86
72 111 98 122 71 30 72 27 103 -236 51 -445 107 -661 176 -677 62 -13 132 -38
216 -77 83 -38 92 -45 148 -119 32 -44 59 -88 59 -99 0 -11 7 -31 16 -45 13
-19 15 -38 11 -80 l-6 -56 28 5 c23 5 30 1 39 -19 10 -20 19 -24 57 -24 25 0
45 2 45 4 0 2 -13 34 -30 71 -34 75 -34 75 -20 75 5 0 32 -33 59 -74 68 -101
99 -129 178 -162 57 -23 86 -28 178 -32 63 -2 128 1 151 7 51 14 93 58 105
111 12 52 -3 76 -96 151 -51 41 -65 58 -65 80 0 38 36 119 53 119 8 0 19 6 25
13 13 17 41 401 52 742 5 154 16 363 24 465 27 318 55 709 62 848 5 85 12 138
20 146 6 7 53 18 103 24 139 17 137 15 195 175 l51 137 36 0 36 0 7 108 c4 59
16 161 26 227 11 66 31 206 46 310 51 370 24 649 -120 1221 -101 402 -104 410
-181 482 -58 54 -160 119 -315 198 -57 29 -154 96 -165 114 -3 5 10 52 29 103
28 76 36 115 44 212 14 181 -9 267 -98 368 -91 102 -221 138 -380 103z m-3566
-1057 c5 -4 -1 -21 -13 -38 -28 -39 -183 -163 -192 -153 -17 18 -50 146 -61
236 l-12 99 35 28 34 28 100 -97 c55 -53 104 -100 109 -103z m-10 -122 c31
-41 31 -41 4 -80 -33 -46 -147 -302 -148 -329 0 -10 -4 -18 -9 -18 -13 0 -72
298 -70 360 l0 25 11 -22 c6 -13 14 -23 18 -23 9 0 137 97 145 110 11 17 23
11 49 -23z m208 -29 l48 -53 21 25 22 25 -8 -35 c-11 -50 -84 -253 -95 -264
-7 -7 -10 6 -10 35 0 25 -16 91 -35 150 -35 103 -35 104 -18 137 10 17 20 32
23 32 3 0 26 -24 52 -52z m-4506 -1030 c7 -237 7 -238 -14 -238 -24 0 -80 52
-93 87 -8 22 -2 119 21 323 6 47 10 119 10 160 0 133 10 136 41 14 26 -98 29
-133 35 -346z m2355 120 c9 -41 24 -65 66 -109 l54 -57 -55 -84 c-30 -45 -63
-88 -74 -95 -18 -11 -19 -5 -25 165 -5 175 -2 232 13 232 4 0 14 -24 21 -52z
m-1337 -26 c9 -27 29 -66 45 -88 26 -36 29 -49 36 -156 9 -148 -3 -152 -86
-32 -27 40 -33 58 -33 99 1 60 14 225 19 225 2 0 11 -22 19 -48z m1836 -3 c7
-11 -1 -30 -29 -66 -32 -44 -95 -161 -127 -242 -10 -23 -10 -23 -59 25 -43 44
-105 128 -105 144 0 3 23 12 50 19 56 14 187 104 215 147 17 27 18 27 32 8 8
-10 18 -26 23 -35z m4090 -521 c29 -46 29 -46 7 -52 -23 -5 -128 7 -162 20
-11 4 -28 14 -37 22 -16 14 -18 13 -18 -4 0 -11 -16 -35 -35 -54 -27 -26 -35
-42 -35 -68 0 -23 -10 -47 -32 -75 -19 -23 -62 -112 -100 -206 -51 -128 -68
-161 -74 -146 -4 11 -40 101 -80 200 -67 164 -77 183 -115 213 -23 17 -45 32
-50 32 -4 0 -10 14 -14 31 -6 26 -11 30 -28 25 -12 -3 -75 -9 -139 -13 -107
-5 -118 -5 -118 11 0 39 81 184 143 256 70 82 135 146 140 139 1 -2 18 -65 36
-140 38 -158 94 -284 166 -369 25 -30 54 -70 64 -89 l18 -33 52 137 c57 150
80 276 81 430 l0 80 150 -150 c83 -83 164 -171 180 -197z m-4489 269 c16 -35
-22 -123 -93 -217 -33 -45 -63 -78 -65 -76 -3 3 0 27 5 53 6 26 14 68 18 93 5
34 14 52 38 71 17 15 40 43 51 63 23 42 32 44 46 13z m177 -40 l51 -52 -13
-40 c-8 -22 -17 -61 -21 -87 -4 -27 -11 -48 -15 -48 -4 0 -12 24 -19 53 -6 29
-23 70 -37 91 -38 56 -47 96 -27 118 9 10 19 18 22 18 4 0 30 -24 59 -53z
m-1540 -2183 c43 -5 62 -11 58 -19 -2 -6 -7 -59 -11 -116 -7 -118 -34 -331
-42 -339 -3 -3 -3 65 1 150 7 149 6 157 -13 175 -12 10 -31 45 -42 77 l-22 59
-56 -6 -56 -6 30 21 c20 14 40 19 60 16 17 -3 58 -8 93 -12z m8 -801 c-3 -38
-8 -184 -12 -325 -5 -250 -5 -257 15 -277 24 -24 26 -49 9 -121 -11 -46 -21
-60 -107 -141 -52 -49 -98 -89 -101 -89 -8 0 -94 119 -113 156 -17 34 -44 157
-53 247 -6 56 -1 84 40 238 26 96 56 204 67 240 l19 67 58 10 c31 6 82 21 112
35 30 14 59 26 64 26 4 1 5 -29 2 -66z"/>
<path d="M11190 3150 c0 -5 5 -12 10 -15 11 -7 -40 -73 -102 -134 -18 -18 -89
-60 -158 -93 -140 -68 -160 -82 -160 -113 0 -30 25 -49 90 -70 46 -15 76 -17
200 -12 82 4 187 15 240 27 52 11 99 20 104 20 5 0 2 8 -6 18 -31 35 -26 136
8 149 10 4 14 23 14 69 l0 64 -47 24 c-69 34 -193 77 -193 66z"/>
</g>
</svg>
